<svg aria-hidden="true" style="position: absolute; width: 0; height: 0; overflow: hidden;" version="1.1" xmlns="http://www.w3.org/2000/svg" xmlns:xlink="http://www.w3.org/1999/xlink">
<defs>
<symbol id="icon-trash" viewBox="0 0 20 20">
<path d="M3.389 7.113l1.101 10.908c0.061 0.461 2.287 1.977 5.51 1.979 3.225-0.002 5.451-1.518 5.511-1.979l1.102-10.908c-1.684 0.942-4.201 1.387-6.613 1.387-2.41 0-4.928-0.445-6.611-1.387zM13.168 1.51l-0.859-0.951c-0.332-0.473-0.692-0.559-1.393-0.559h-1.831c-0.7 0-1.061 0.086-1.392 0.559l-0.859 0.951c-2.57 0.449-4.434 1.64-4.434 2.519v0.17c0 1.547 3.403 2.801 7.6 2.801 4.198 0 7.601-1.254 7.601-2.801v-0.17c0-0.879-1.863-2.070-4.433-2.519zM12.070 4.34l-1.070-1.34h-2l-1.068 1.34h-1.7c0 0 1.862-2.221 2.111-2.522 0.19-0.23 0.384-0.318 0.636-0.318h2.043c0.253 0 0.447 0.088 0.637 0.318 0.248 0.301 2.111 2.522 2.111 2.522h-1.7z"></path>
</symbol>
<symbol id="icon-check" viewBox="0 0 20 20">
<path d="M8.294 16.998c-0.435 0-0.847-0.203-1.111-0.553l-3.573-4.721c-0.465-0.613-0.344-1.486 0.27-1.951 0.615-0.467 1.488-0.344 1.953 0.27l2.351 3.104 5.911-9.492c0.407-0.652 1.267-0.852 1.921-0.445s0.854 1.266 0.446 1.92l-6.984 11.21c-0.242 0.391-0.661 0.635-1.12 0.656-0.022 0.002-0.042 0.002-0.064 0.002z"></path>
</symbol>
<symbol id="icon-circle-with-minus" viewBox="0 0 20 20">
<path d="M10 1.6c-4.639 0-8.4 3.761-8.4 8.4s3.761 8.4 8.4 8.4 8.4-3.761 8.4-8.4c0-4.639-3.761-8.4-8.4-8.4zM15 11h-10v-2h10v2z"></path>
</symbol>
<symbol id="icon-circle-with-plus" viewBox="0 0 20 20">
<path d="M10 1.6c-4.639 0-8.4 3.761-8.4 8.4s3.761 8.4 8.4 8.4 8.4-3.761 8.4-8.4c0-4.639-3.761-8.4-8.4-8.4zM15 11h-4v4h-2v-4h-4v-2h4v-4h2v4h4v2z"></path>
</symbol>
<symbol id="icon-clipboard" viewBox="0 0 20 20">
<path d="M15.6 2l-1.2 3h-8.8l-1.2-3c-0.771 0-1.4 0.629-1.4 1.4v15.2c0 0.77 0.629 1.4 1.399 1.4h11.2c0.77 0 1.4-0.631 1.4-1.4v-15.2c0.001-0.771-0.63-1.4-1.399-1.4zM13.6 4l0.9-2h-2.181l-0.719-2h-3.2l-0.72 2h-2.18l0.899 2h7.201z"></path>
</symbol>
<symbol id="icon-credit" viewBox="0 0 20 20">
<path d="M11 16.755v2.245h-2v-2.143c-1.712-0.1-3.066-0.589-4.241-1.797l1.718-1.74c0.859 0.87 2.023 1.16 3.282 1.16 1.565 0 2.405-0.599 2.405-1.702 0-0.483-0.133-0.889-0.42-1.16-0.267-0.251-0.572-0.387-1.202-0.483l-1.642-0.232c-1.164-0.174-2.022-0.541-2.634-1.141-0.648-0.657-0.973-1.546-0.973-2.707 0-2.155 1.382-3.743 3.707-4.1v-1.955h2v1.932c1.382 0.145 2.465 0.62 3.415 1.551l-1.679 1.682c-0.859-0.832-1.889-0.947-2.787-0.947-1.412 0-2.099 0.792-2.099 1.74 0 0.348 0.115 0.716 0.401 0.986 0.267 0.252 0.706 0.464 1.26 0.541l1.602 0.232c1.241 0.174 2.023 0.522 2.596 1.063 0.726 0.696 1.050 1.702 1.050 2.92 0 2.25-1.567 3.662-3.759 4.055z"></path>
</symbol>
<symbol id="icon-minus" viewBox="0 0 20 20">
<path d="M16 10c0 0.553-0.048 1-0.601 1h-10.798c-0.552 0-0.601-0.447-0.601-1s0.049-1 0.601-1h10.799c0.552 0 0.6 0.447 0.6 1z"></path>
</symbol>
<symbol id="icon-phone" viewBox="0 0 20 20">
<path d="M11.229 11.229c-1.583 1.582-3.417 3.096-4.142 2.371-1.037-1.037-1.677-1.941-3.965-0.102-2.287 1.838-0.53 3.064 0.475 4.068 1.16 1.16 5.484 0.062 9.758-4.211 4.273-4.274 5.368-8.598 4.207-9.758-1.005-1.006-2.225-2.762-4.063-0.475s-0.936 2.927 0.103 3.965c0.722 0.725-0.791 2.559-2.373 4.142z"></path>
</symbol>
<symbol id="icon-plus" viewBox="0 0 20 20">
<path d="M16 10c0 0.553-0.048 1-0.601 1h-4.399v4.399c0 0.552-0.447 0.601-1 0.601s-1-0.049-1-0.601v-4.399h-4.399c-0.552 0-0.601-0.447-0.601-1s0.049-1 0.601-1h4.399v-4.399c0-0.553 0.447-0.601 1-0.601s1 0.048 1 0.601v4.399h4.399c0.553 0 0.601 0.447 0.601 1z"></path>
</symbol>
<symbol id="icon-shop" viewBox="0 0 20 20">
<path d="M6.123 7.25l0.791-5.25h-4.114l-1.719 4.5c-0.053 0.16-0.081 0.326-0.081 0.5 0 1.104 1.15 2 2.571 2 1.31 0 2.393-0.764 2.552-1.75zM10 9c1.42 0 2.571-0.896 2.571-2 0-0.041-0.003-0.082-0.005-0.121l-0.509-4.879h-4.114l-0.51 4.875c-0.002 0.041-0.004 0.082-0.004 0.125 0 1.104 1.151 2 2.571 2zM15 10.046v3.954h-10v-3.948c-0.438 0.158-0.92 0.248-1.429 0.248-0.195 0-0.384-0.023-0.571-0.049v6.349c0 0.77 0.629 1.4 1.398 1.4h11.202c0.77 0 1.4-0.631 1.4-1.4v-6.348c-0.188 0.025-0.376 0.049-0.571 0.049-0.506-0.001-0.99-0.093-1.429-0.255zM18.92 6.5l-1.721-4.5h-4.113l0.79 5.242c0.154 0.99 1.237 1.758 2.553 1.758 1.42 0 2.571-0.896 2.571-2 0-0.174-0.028-0.34-0.080-0.5z"></path>
</symbol>
<symbol id="icon-squared-minus" viewBox="0 0 20 20">
<path d="M16 2h-12c-1.1 0-2 0.9-2 2v12c0 1.1 0.9 2 2 2h12c1.1 0 2-0.9 2-2v-12c0-1.1-0.9-2-2-2zM15 11h-10v-2h10v2z"></path>
</symbol>
<symbol id="icon-squared-plus" viewBox="0 0 20 20">
<path d="M16 2h-12c-1.1 0-2 0.9-2 2v12c0 1.1 0.9 2 2 2h12c1.1 0 2-0.9 2-2v-12c0-1.1-0.9-2-2-2zM15 11h-4v4h-2v-4h-4v-2h4v-4h2v4h4v2z"></path>
</symbol>
<symbol id="icon-truck2" viewBox="0 0 24 24">
<path d="M15 15h-13v-11h13v4zM17 9h2.586l2.414 2.414v3.586h-5zM7 18.5c0 0.414-0.167 0.788-0.439 1.061s-0.647 0.439-1.061 0.439-0.788-0.167-1.061-0.439-0.439-0.647-0.439-1.061 0.167-0.788 0.439-1.061 0.647-0.439 1.061-0.439 0.788 0.167 1.061 0.439 0.439 0.647 0.439 1.061zM22 18.5c0-0.537-0.121-1.045-0.337-1.5h1.337c0.552 0 1-0.448 1-1v-5c0-0.256-0.098-0.512-0.293-0.707l-3-3c-0.181-0.181-0.431-0.293-0.707-0.293h-3v-4c0-0.552-0.448-1-1-1h-15c-0.552 0-1 0.448-1 1v13c0 0.552 0.448 1 1 1h1.337c-0.216 0.455-0.337 0.963-0.337 1.5 0 0.966 0.393 1.843 1.025 2.475s1.509 1.025 2.475 1.025 1.843-0.393 2.475-1.025 1.025-1.509 1.025-2.475c0-0.537-0.121-1.045-0.337-1.5h6.674c-0.216 0.455-0.337 0.963-0.337 1.5 0 0.966 0.393 1.843 1.025 2.475s1.509 1.025 2.475 1.025 1.843-0.393 2.475-1.025 1.025-1.509 1.025-2.475zM20 18.5c0 0.414-0.167 0.788-0.439 1.061s-0.647 0.439-1.061 0.439-0.788-0.167-1.061-0.439-0.439-0.647-0.439-1.061 0.167-0.788 0.439-1.061 0.647-0.439 1.061-0.439 0.788 0.167 1.061 0.439 0.439 0.647 0.439 1.061z"></path>
</symbol>
</defs>
</svg>
