<?xml version="1.0" standalone="no"?>
<!DOCTYPE svg PUBLIC "-//W3C//DTD SVG 20010904//EN"
 "http://www.w3.org/TR/2001/REC-SVG-20010904/DTD/svg10.dtd">
<svg version="1.0" xmlns="http://www.w3.org/2000/svg"
 width="128.000000pt" height="128.000000pt" viewBox="0 0 128.000000 128.000000"
 preserveAspectRatio="xMidYMid meet">
<metadata>
Created by potrace 1.11, written by Peter Selinger 2001-2013
</metadata>
<g transform="translate(0.000000,128.000000) scale(0.100000,-0.100000)"
fill="#000000" stroke="none">
<path d="M0 645 c0 -256 3 -465 7 -465 3 0 52 27 109 60 56 33 105 60 108 60
3 0 6 -29 6 -65 l0 -64 111 64 c62 36 114 65 118 65 3 0 5 -27 4 -60 -1 -33 2
-60 7 -60 4 0 61 31 126 68 66 38 243 140 394 226 151 87 279 162 283 166 5 4
-4 14 -20 22 -15 8 -194 110 -396 227 -202 116 -374 214 -381 217 -10 4 -13
-8 -13 -51 0 -31 -3 -58 -6 -61 -3 -3 -53 22 -112 55 -58 34 -108 61 -111 61
-2 0 -4 -29 -4 -64 l0 -64 -111 64 c-60 35 -112 64 -115 64 -2 0 -4 -209 -4
-465z m428 308 c17 -9 32 -24 33 -32 0 -9 2 -28 3 -43 1 -16 1 -28 0 -28 -1 0
-44 24 -95 53 l-94 53 -1 42 -1 42 61 -36 c34 -19 76 -42 94 -51z m449 -128
c172 -99 309 -183 305 -187 -15 -15 -667 -386 -671 -382 -2 2 -5 19 -6 37 l-3
34 181 104 c100 57 201 115 226 129 78 43 142 82 139 85 -2 1 -120 69 -263
150 -143 81 -265 155 -272 163 -7 8 -11 24 -8 36 2 12 4 27 4 34 1 10 8 8 29
-6 15 -10 168 -99 339 -197z m-737 156 l85 -48 3 -289 2 -289 -28 -16 c-16 -9
-59 -33 -95 -53 l-67 -38 0 391 c0 215 3 391 8 391 4 0 45 -22 92 -49z m238
-136 c48 -27 82 -54 83 -63 1 -10 1 -78 2 -152 l0 -135 -39 -26 c-21 -14 -65
-40 -96 -58 l-57 -32 1 253 c0 139 3 256 5 261 2 4 7 6 11 4 4 -3 44 -26 90
-52z m382 -85 c107 -61 196 -113 197 -114 2 -1 -86 -54 -195 -116 -108 -63
-209 -122 -224 -133 -16 -10 -28 -15 -29 -10 -5 41 -5 63 0 71 3 4 72 46 153
93 81 46 147 87 148 91 0 3 -67 45 -150 93 -82 47 -151 91 -151 96 -4 30 -5
55 -2 61 5 10 14 5 253 -132z m-107 -72 c38 -22 65 -44 60 -48 -8 -9 -199
-120 -205 -120 -3 0 -2 217 1 242 1 8 25 -4 144 -74z m-188 -293 c-1 -33 -5
-38 -85 -86 -47 -28 -90 -53 -95 -55 -6 -3 -11 13 -12 36 l-2 40 92 50 c51 27
95 50 98 50 3 0 5 -16 4 -35z"/>
</g>
</svg>
